<svg xmlns="http://www.w3.org/2000/svg" xmlns:xlink="http://www.w3.org/1999/xlink"><symbol id="account" viewBox="0 0 40 40"><rect x="1" y="1" width="38" height="38" rx="9" stroke="#297FFF" stroke-width="2"/><circle cx="20" cy="13.75" r="3.75" stroke="#297FFF" stroke-width="2"/><path d="M10.25 28.688a7.188 7.188 0 0 1 7.188-7.188h5.125a7.188 7.188 0 0 1 7.187 7.188c0 .172-.14.312-.313.312H10.563a.312.312 0 0 1-.312-.313Z" stroke="#297FFF" stroke-width="2"/></symbol><symbol id="facebook" viewBox="0 0 16 32"><path d="M4.084 32V16.985H0v-5.407h4.084V6.961C4.084 3.332 6.497 0 12.057 0c2.25 0 3.915.21 3.915.21l-.131 5.048s-1.698-.016-3.55-.016c-2.005 0-2.326.898-2.326 2.389v3.947H16l-.263 5.407H9.965V32h-5.88Z" fill="#fff"/></symbol><symbol id="instagram" viewBox="0 0 32 32"><path fill-rule="evenodd" clip-rule="evenodd" d="M9.404.096C11.11.017 11.654 0 16 0s4.89.019 6.595.096 2.868.35 3.887.743a7.872 7.872 0 0 1 2.833 1.848 7.815 7.815 0 0 1 1.844 2.832c.396 1.018.667 2.181.745 3.883.079 1.71.096 2.253.096 6.598 0 4.346-.019 4.89-.096 6.596-.077 1.702-.35 2.866-.745 3.884a7.849 7.849 0 0 1-1.844 2.835 7.846 7.846 0 0 1-2.834 1.844c-1.018.396-2.181.667-3.883.745C20.89 31.983 20.346 32 16 32s-4.89-.019-6.596-.096c-1.702-.077-2.866-.35-3.884-.745a7.85 7.85 0 0 1-2.835-1.844A7.843 7.843 0 0 1 .84 26.48C.445 25.463.175 24.3.096 22.599.017 20.888 0 20.345 0 16c0-4.346.019-4.89.096-6.595s.35-2.868.743-3.886a7.849 7.849 0 0 1 1.848-2.834A7.843 7.843 0 0 1 5.519.84C6.537.445 7.7.175 9.402.096h.002Zm13.061 2.88c-1.687-.077-2.193-.093-6.465-.093s-4.778.016-6.465.093c-1.561.071-2.408.332-2.972.551-.746.291-1.28.636-1.84 1.196a4.963 4.963 0 0 0-1.196 1.84c-.22.564-.48 1.41-.551 2.972-.077 1.687-.093 2.193-.093 6.465s.016 4.778.093 6.465c.071 1.561.332 2.408.551 2.972a4.967 4.967 0 0 0 1.196 1.84c.516.531 1.146.94 1.84 1.196.564.22 1.41.48 2.972.551 1.687.077 2.191.093 6.465.093 4.273 0 4.778-.016 6.465-.093 1.561-.071 2.408-.332 2.972-.551a4.968 4.968 0 0 0 1.84-1.196c.531-.516.94-1.146 1.196-1.84.22-.564.48-1.41.551-2.972.077-1.687.093-2.193.093-6.465s-.016-4.778-.093-6.465c-.071-1.561-.332-2.408-.551-2.972a4.968 4.968 0 0 0-1.196-1.84 4.965 4.965 0 0 0-1.84-1.196c-.564-.22-1.41-.48-2.972-.551Zm-8.509 17.956a5.337 5.337 0 0 0 5.819-8.706 5.337 5.337 0 1 0-5.819 8.706Zm-3.771-10.747a8.225 8.225 0 1 1 11.63 11.631 8.225 8.225 0 0 1-11.63-11.631ZM26.048 9a1.945 1.945 0 1 0-2.67-2.83A1.945 1.945 0 0 0 26.048 9Z" fill="#fff"/></symbol><symbol id="logo" viewBox="0 0 66 43"><path d="M8.281 34.669c.543.177.974.477 1.292.898.318.412.477.926.477 1.544 0 .851-.328 1.511-.983 1.979-.655.458-1.61.688-2.863.688H1.319v-9.826h4.604c1.16 0 2.054.23 2.681.688.627.45.94 1.072.94 1.867 0 .487-.112.917-.336 1.291a2.307 2.307 0 0 1-.927.87Zm-5.137-3.285v2.71h2.583c.636 0 1.123-.113 1.46-.338.346-.234.519-.57.519-1.01 0-.45-.173-.786-.52-1.011-.336-.234-.823-.35-1.46-.35H3.145Zm2.948 6.962c1.413 0 2.12-.472 2.12-1.418 0-.945-.707-1.417-2.12-1.417H3.144v2.835h2.948Zm5.737-6.064h1.754v7.496H11.83v-7.496Zm.884-1.235c-.318 0-.585-.098-.8-.294a1.008 1.008 0 0 1-.323-.759c0-.299.108-.547.323-.743.215-.206.482-.31.8-.31.318 0 .585.1.8.296a.906.906 0 0 1 .323.715c0 .31-.107.571-.323.786-.206.206-.472.31-.8.31Zm6.233 5.516L17.641 37.8v1.979h-1.755V29.363h1.755v6.288l3.635-3.369h2.106l-3.13 3.145 3.424 4.35h-2.133l-2.597-3.214Zm12.595-.49c0 .12-.01.294-.029.519h-5.88c.102.552.369.991.8 1.319.44.318.982.477 1.628.477.823 0 1.502-.271 2.035-.814l.94 1.08a3.169 3.169 0 0 1-1.277.913c-.515.206-1.095.309-1.74.309-.824 0-1.55-.164-2.176-.491a3.601 3.601 0 0 1-1.46-1.362c-.337-.59-.505-1.254-.505-1.993 0-.73.164-1.385.491-1.965a3.57 3.57 0 0 1 1.39-1.375c.59-.328 1.254-.492 1.993-.492.73 0 1.38.164 1.95.492.581.318 1.03.772 1.348 1.361.328.58.492 1.254.492 2.021Zm-3.79-2.471c-.562 0-1.039.168-1.432.505-.383.328-.617.767-.702 1.32h4.253c-.075-.543-.304-.983-.688-1.32-.383-.337-.86-.505-1.431-.505Zm9.686-3.65c.851 0 1.59.14 2.218.421.636.281 1.122.684 1.46 1.208.336.524.505 1.146.505 1.866 0 .712-.169 1.334-.506 1.867-.337.524-.823.927-1.46 1.207-.626.281-1.366.422-2.217.422h-2.218v2.835h-1.825v-9.826h4.043Zm-.084 5.446c.795 0 1.398-.168 1.81-.505.412-.337.618-.819.618-1.446s-.206-1.108-.618-1.445c-.411-.337-1.015-.506-1.81-.506h-2.134v3.902h2.134Zm8.715-3.2c1.104 0 1.947.267 2.527.8.59.524.884 1.32.884 2.386v4.394h-1.656v-.913a2.08 2.08 0 0 1-.927.758c-.393.169-.87.253-1.431.253-.562 0-1.053-.094-1.474-.28a2.397 2.397 0 0 1-.983-.8 2.094 2.094 0 0 1-.337-1.166c0-.674.248-1.212.744-1.614.506-.412 1.296-.617 2.373-.617h1.937v-.113c0-.524-.16-.926-.478-1.207-.309-.28-.772-.421-1.39-.421-.42 0-.837.066-1.249.197a3.062 3.062 0 0 0-1.024.547l-.688-1.277a4.26 4.26 0 0 1 1.418-.688 6.307 6.307 0 0 1 1.754-.239Zm-.238 6.4c.44 0 .828-.097 1.165-.294.346-.206.59-.496.73-.87v-.87h-1.811c-1.01 0-1.516.332-1.516.996 0 .318.126.57.379.758.252.187.603.28 1.053.28Zm7.571-5.22c.505-.787 1.394-1.18 2.667-1.18v1.67a2.225 2.225 0 0 0-.407-.042c-.683 0-1.217.202-1.6.604-.384.393-.576.964-.576 1.712v3.636h-1.754v-7.496h1.67v1.095Zm7.215 3.185L59.311 37.8v1.979h-1.755V29.363h1.755v6.288l3.635-3.369h2.106l-3.13 3.145 3.424 4.35h-2.133l-2.597-3.214Z" fill="#297FFF"/><path d="M36.675 10.365H32.88M42.367 20.716l-9.487-10.35M36.751 20.716c0 2.72 2.505 4.986 5.616 4.986 3.112 0 5.617-2.266 5.617-4.986 0-2.72-2.505-4.986-5.617-4.986-2.049 0-3.87.982-4.857 2.493M24 17.09c-.304-.076-.683-.076-1.063-.076-2.656 0-4.857 1.964-4.857 4.382 0 2.418 2.201 4.382 4.857 4.382 2.657 0 4.858-1.964 4.858-4.382M32.44 5.421c1.153-.384 1.806-1.53 1.46-2.558-.346-1.03-1.56-1.551-2.713-1.167-1.153.384-1.807 1.53-1.46 2.558.346 1.029 1.56 1.551 2.713 1.167ZM29.616 7.192c-1.973 2.116-3.49 4.987-3.718 6.12" stroke="#297FFF" stroke-width="1.941" stroke-miterlimit="10" stroke-linecap="round" stroke-linejoin="bevel"/><path d="M29.464 16.636c-2.2.68-4.402 4.684-6.906 4.231l6.906-4.23Z" fill="#297FFF"/><path d="M29.464 16.636c-2.2.68-4.402 4.684-6.906 4.231" stroke="#297FFF" stroke-width="1.941" stroke-miterlimit="10" stroke-linecap="round" stroke-linejoin="round"/><path d="M25.974 13.387c1.821-.226 4.857.831 5.844 2.191 1.29 1.814 0 4.231-1.367 5.818" stroke="#297FFF" stroke-width="1.941" stroke-miterlimit="10" stroke-linecap="round" stroke-linejoin="round"/><path d="M34.094 16.107a.682.682 0 0 0 .683-.68.682.682 0 0 0-.683-.68.682.682 0 0 0-.683.68c0 .376.306.68.683.68Z" fill="#297FFF"/></symbol><symbol id="review-author-icon" viewBox="0 0 19 15"><path d="M2.5 0h5.833l-2.5 15H0L2.5 0ZM12.5 0h5.833l-2.5 15H10l2.5-15Z" fill="#297FFF"/></symbol></svg>